<svg xmlns="http://www.w3.org/2000/svg" version="1.1" xmlns:xlink="http://www.w3.org/1999/xlink" xmlns:svgjs="http://svgjs.com/svgjs" width="1440" height="560" preserveAspectRatio="none" viewBox="0 0 1440 560"><g mask="url(&quot;#SvgjsMask1001&quot;)" fill="none"><rect width="1440" height="560" x="0" y="0" fill="rgba(250, 197, 100, 1)"></rect><path d="M0,462.37C89.974,476.581,188.716,461.805,262.128,407.88C334.188,354.948,360.87,262.41,388.144,177.259C412.806,100.264,428.29,19.936,411.737,-59.199C395.784,-135.468,349.071,-199.38,297.2,-257.526C245.948,-314.979,188.646,-369.211,115.04,-391.789C40.97,-414.509,-37.743,-403.483,-112.518,-383.203C-188.522,-362.589,-261.223,-330.282,-316.938,-274.628C-375.254,-216.376,-422.115,-143.964,-433.711,-62.358C-445.298,19.186,-420.723,101.878,-380.666,173.844C-342.546,242.331,-276.283,285.359,-213.817,332.705C-146.015,384.095,-84.035,449.097,0,462.37" fill="#f8ac20"></path><path d="M1440 1021.556C1534.628 1038.562 1636.07 1042.0810000000001 1721.625 998.217 1810.7060000000001 952.546 1871.47 867.0319999999999 1916.135 777.443 1961.897 685.652 2004.5430000000001 581.806 1978.714 482.545 1953.501 385.649 1861.218 325.038 1782.3609999999999 263.343 1715.787 211.25799999999998 1642.078 170.55200000000002 1559.131 154.27800000000002 1481.235 138.995 1404.591 158.93200000000002 1326.639 173.92899999999997 1240.2350000000001 190.55200000000002 1145.046 189.2 1078.4850000000001 246.74599999999998 1008.6120000000001 307.155 964.517 398.724 959.9259999999999 490.976 955.483 580.248 1007.22 660.138 1054.126 736.223 1096.284 804.607 1152.098 859.71 1216.692 907.4739999999999 1285.29 958.198 1356.03 1006.4649999999999 1440 1021.556" fill="#fcdea8"></path></g><defs><mask id="SvgjsMask1001"><rect width="1440" height="560" fill="#ffffff"></rect></mask></defs></svg>